<svg width="440" height="429" viewBox="0 0 440 429" fill="none" xmlns="http://www.w3.org/2000/svg">
<path d="M8.29826 126.746L8.29875 126.745C18.53 104.199 42.0758 91.5576 62.1812 97.3954C69.4646 99.527 75.3557 102.432 80.5442 106.655C85.7358 110.879 90.2461 116.441 94.7438 123.915L94.7452 123.918C104.96 140.684 109.299 158.193 108.297 178.147L108.297 178.15C107.764 190.115 106.332 199.192 103.465 207.009C100.601 214.819 96.2949 221.399 89.9765 228.353C84.151 234.692 78.9516 238.835 73.3227 241.235C67.6998 243.633 61.603 244.309 53.9496 243.635L53.9402 243.635C47.4849 243.189 42.2893 241.758 37.1547 238.675C32.0071 235.583 26.8942 230.815 20.6312 223.647C16.2232 218.534 13.3219 214.833 11.0708 211.032C8.82242 207.235 7.21208 203.32 5.4084 197.768C-2.05939 174.465 -0.935332 146.967 8.29826 126.746Z" fill="black" stroke="white"/>
<path d="M151.923 0.82971L151.924 0.829685C159.097 0.729959 165.003 1.75989 170.615 4.35166C176.235 6.94638 181.594 11.122 187.65 17.3655C192.692 22.5627 195.55 25.7961 197.824 29.7198C200.102 33.6507 201.805 38.2949 204.491 46.3405C216.385 82.0155 207.825 115.296 190.633 133.72C182.04 142.93 171.306 148.415 159.894 148.678C148.487 148.941 136.325 143.989 124.865 132.175C100.984 107.556 94.6343 64.7419 109.962 30.3393C113.625 22.1396 120.059 14.7982 127.62 9.48602C135.182 4.17233 143.837 0.913911 151.923 0.82971Z" fill="black" stroke="white"/>
<path d="M243.472 35.4717L243.472 35.4717C244.314 33.7175 246.289 30.9103 248.825 27.7944C251.352 24.6893 254.407 21.3127 257.383 18.4262L257.383 18.4262L257.388 18.4209C266.597 9.21297 276.09 3.99097 285.744 2.66786C295.392 1.34547 305.266 3.90856 315.262 10.3962L315.268 10.4001C319.148 12.8366 321.598 14.6689 323.706 17.0512C325.819 19.4395 327.61 22.4032 330.132 27.1394L330.135 27.1454C342.758 50.0743 344.304 77.4516 334.821 103.989L335.291 104.157L334.821 103.989C332.403 110.755 330.63 115.145 328.333 119.047C326.038 122.946 323.209 126.378 318.654 131.211C306.142 144.45 297.191 149.543 285.991 150.341L285.989 150.341C264.649 151.953 244.993 136.291 237.005 111.343L237.003 111.339C229.135 87.3578 231.348 60.7221 243.472 35.4717Z" fill="black" stroke="white"/>
<path d="M333.152 156.861L333.152 156.859C334.188 152.573 337.674 143.684 340.577 137.277C345.469 126.774 353.62 117.493 362.828 110.998C372.043 104.497 382.266 100.82 391.297 101.44L391.297 101.44L391.306 101.441C397.351 101.741 402.456 102.93 407.207 105.266C411.961 107.603 416.386 111.101 421.053 116.055L421.057 116.059C436.251 131.864 441.677 157.315 438.596 181.821C435.514 206.327 423.944 229.738 405.337 241.486C391.649 250.107 377.279 251.191 364.824 245.946C352.36 240.697 341.749 229.081 335.66 212.183C333.534 206.046 332.121 195.386 331.636 184.638C331.151 173.889 331.6 163.15 333.152 156.861Z" fill="black" stroke="white"/>
<path d="M56.2172 286.795L56.2145 286.799C41.4507 311.304 36.5985 346.302 44.1842 369.979C51.5378 392.443 72.3679 411.414 98.5406 420.299C100.123 419.479 101.84 418.641 103.625 417.828L103.633 417.825C114.065 413.285 120.79 411.973 136.882 411.266L136.889 411.265C142.474 411.096 148.344 411.084 153.326 411.21C158.293 411.336 162.415 411.599 164.482 411.988C164.482 411.988 164.482 411.988 164.482 411.988L164.389 412.479C168.431 413.239 171.554 413.145 171.514 411.822L56.2172 286.795ZM56.2172 286.795C65.236 271.453 84.3713 253.978 105.704 241.56L105.706 241.559C115.923 235.527 132.255 224.114 141.94 216.105L56.2172 286.795Z" fill="black" stroke="white"/>
</svg>
