<svg width="1227" height="429" viewBox="0 0 1227 429" fill="none" xmlns="http://www.w3.org/2000/svg">
<path d="M7.84344 126.538C-1.44736 146.884 -2.56946 174.512 4.93264 197.921C8.55194 209.062 11.4277 213.736 20.2529 223.974C32.8042 238.339 40.8688 243.233 53.9057 244.133C69.3212 245.49 78.6452 241.422 90.3452 228.69C103.048 214.71 107.729 202.152 108.796 178.172C109.803 158.12 105.44 140.512 95.1722 123.657C86.1382 108.645 76.9902 101.208 62.3209 96.9154C41.923 90.9924 18.1525 103.821 7.84344 126.538Z" fill="black"/>
<path d="M109.505 30.1353C94.1044 64.7023 100.466 107.74 124.506 132.523C170.652 180.095 228.854 117.833 204.965 46.1823C199.597 30.1033 198.094 27.4143 188.009 17.0173C175.85 4.48283 166.374 0.128734 151.917 0.329734C135.496 0.500734 116.915 13.5493 109.505 30.1353Z" fill="black"/>
<path d="M243.021 35.2553C230.847 60.6093 228.615 87.3783 236.528 111.495C244.565 136.596 264.391 152.474 286.026 150.839C297.405 150.029 306.465 144.835 319.017 131.554C328.145 121.87 330.454 117.695 335.291 104.157C344.818 77.4993 343.272 49.9713 330.573 26.9043C325.525 17.4263 323.319 14.8663 315.534 9.9767C295.386 -3.0999 275.559 -0.454794 257.034 18.0673C251.052 23.8703 244.76 31.6323 243.021 35.2553Z" fill="black"/>
<path d="M340.122 137.068C337.218 143.479 333.714 152.406 332.666 156.741C329.526 169.463 330.886 199.935 335.188 212.349C347.44 246.355 377.975 259.309 405.604 241.908C443.152 218.202 452.085 147.613 421.417 115.712C412.027 105.746 403.53 101.547 391.331 100.941C372.967 99.6793 349.987 115.888 340.122 137.068Z" fill="black"/>
<path fill-rule="evenodd" clip-rule="evenodd" d="M55.7862 286.541C40.9577 311.153 36.0725 346.301 43.7086 370.133C51.1399 392.836 72.1992 411.946 98.5822 420.841C100.209 419.993 101.984 419.125 103.832 418.283C114.19 413.776 120.849 412.471 136.904 411.765C148.057 411.427 160.347 411.718 164.389 412.479C168.431 413.239 171.554 413.145 171.514 411.822C171.48 410.719 167.265 404.224 162.151 397.536C149.584 380.699 146.418 371.965 150.895 364.987C153.669 360.709 156.306 359.305 162.775 359.11L171.029 358.86L170.182 330.852C169.422 305.711 169.944 300.839 175.061 285.454C180.774 267.622 181.499 262.082 178.236 257.545C176.831 255.38 175.093 256.978 171.487 263.268L166.61 271.803L164.179 265.255C162.727 261.546 159.181 255.031 156.141 250.488C149.832 241.187 150.341 235.874 157.968 229.683C160.579 227.397 165.529 221.287 168.722 216.114C175.114 205.988 179.273 203.213 185.579 205.009C187.836 205.824 191.615 205.268 193.583 203.884C200.594 199.478 216.919 200.309 225.339 205.573C229.658 208.091 236.923 212.065 241.235 214.363C248.493 218.117 249.662 219.847 251.071 229.517C252.15 235.665 254.161 243.109 255.823 246.37C260.098 254.849 257.628 261.767 247.769 268.025C242.955 271.261 237.964 276.047 236.49 278.961C233.114 285.465 230.107 282.024 229.787 271.438C229.674 267.689 228.458 264.415 227.12 264.455C224.666 264.529 225.602 273.331 228.715 280.3C230.14 283.126 229.485 283.588 225.889 282.813C219.143 281.252 217.782 287.915 222.753 297.256C234.364 319.42 234.784 333.314 224.983 363.63C218.336 384.35 218.736 400.398 226.052 411.114C227.501 411.267 228.965 411.449 230.448 411.659C221.183 401.434 220.964 387.001 228.945 361.744C238.516 331.214 238.203 320.849 225.863 296.72C220.858 286.276 221.873 282.935 229.375 287.343C234.159 290.51 235.491 290.249 242.529 286.725C246.924 284.385 250.177 281.196 250.11 278.991C250.044 276.785 250.62 273.678 251.229 271.673C255.127 260.297 266.901 280.47 271.027 306.171C274.574 327.475 277.518 336.215 285.812 352.078C292.209 364.246 293.95 370.153 294.277 380.959C294.733 388.671 295.589 394.826 296.259 394.806C299.159 394.718 300.277 387.4 299.757 370.198C299.177 351.012 302.609 338.988 309.634 335.023C316.436 331.065 317.691 335.663 312.165 344.88C308.14 352.065 307.774 354.725 309.579 370.122C312.839 396.732 305.682 411.076 285.142 418.54C280.837 420.062 275.765 421.099 270.515 421.665C305.486 432.262 329.634 430.277 357.09 414.476C398.709 390.692 406.503 330.329 373.973 282.543C363.269 266.663 355.515 259.809 330.358 243.85C320.765 237.95 302.041 223.492 288.743 212.063C252.593 180.781 242.711 175.439 220.544 175.101C196.413 174.734 184.815 180.732 141.623 215.718C131.959 223.71 115.647 235.109 105.452 241.128C84.0732 253.573 64.8622 271.102 55.7862 286.541Z" fill="black"/>
<path d="M514.117 230.157C486.671 306.02 484.821 310.029 473.102 317.122L462.925 323.29H484.204C505.174 323.29 505.174 323.29 498.39 317.739C491.297 312.188 491.297 311.879 496.539 296.152L502.09 280.116H528.92H556.058L561.3 293.376C567.777 310.029 567.468 316.197 560.992 319.897C556.983 322.365 562.534 322.981 582.579 323.29H610.025L600.774 315.58C593.681 309.721 586.28 293.685 566.235 241.567C552.049 205.178 539.097 175.264 537.246 175.264C535.396 175.264 524.911 199.935 514.117 230.157ZM540.639 240.642C545.881 254.828 551.124 268.705 552.357 271.481C554.208 276.415 552.049 277.032 529.537 277.032C515.659 277.032 504.557 276.415 504.557 275.798C504.557 274.873 508.875 262.846 513.809 248.66C519.052 234.474 523.986 221.214 524.603 219.055C527.378 211.037 531.387 216.28 540.639 240.642Z" fill="black"/>
<path d="M664.301 182.049C670.469 185.133 671.086 187.6 671.086 208.57C671.086 229.232 670.469 231.082 665.843 228.924C662.759 227.382 653.508 226.148 644.873 226.148C617.427 226.148 600.157 245.576 600.157 276.107C600.465 312.805 638.397 339.326 663.068 319.898C669.544 314.655 671.086 314.347 671.086 318.356C671.086 322.365 674.786 323.29 690.514 323.29C707.784 323.29 709.017 322.981 701.924 319.281L694.215 315.272L693.29 246.81L692.673 178.348L674.786 178.657C659.984 178.657 658.134 179.273 664.301 182.049ZM665.535 239.1C670.161 243.109 671.086 248.969 671.086 273.023C671.086 299.852 670.469 302.628 663.376 309.721C645.49 327.299 627.912 310.646 627.912 276.415C627.912 257.295 630.996 246.81 638.705 239.1C645.181 232.316 658.134 232.316 665.535 239.1Z" fill="black"/>
<path d="M935.373 180.507C939.382 181.124 943.082 184.824 944.007 188.525C944.933 192.226 945.241 222.447 944.933 255.445L944.007 315.272L936.298 319.281C929.513 322.673 932.289 323.29 957.885 322.981C974.538 322.673 983.789 321.748 979.472 320.514C972.071 318.664 971.762 317.122 970.837 294.61L969.912 270.864H980.705C1003.53 270.864 1022.65 264.388 1035.29 252.669C1046.39 241.876 1047.32 239.717 1047.32 224.915C1047.32 210.42 1046.08 207.337 1037.14 198.393C1022.65 183.899 1001.06 178.348 961.277 178.657C943.391 178.965 931.672 179.89 935.373 180.507ZM999.209 185.749C1014.94 192.226 1019.56 201.169 1019.56 224.606C1019.56 238.175 1018.02 247.118 1014.63 252.052C1008.46 260.687 992.424 267.78 979.472 267.78H970.22V224.606V181.432H979.472C984.714 181.432 993.658 183.282 999.209 185.749Z" fill="black"/>
<path d="M1174.06 204.253C1168.2 215.663 1163.58 220.597 1154.64 224.298C1140.45 230.157 1139.52 233.858 1152.17 233.858C1157.41 233.858 1161.42 234.783 1161.73 236.016C1161.73 237.558 1162.04 254.211 1162.35 273.331L1162.96 308.487L1173.14 317.43C1188.87 331.308 1215.08 328.532 1222.79 311.879C1226.8 303.245 1227.11 301.703 1224.02 301.703C1222.48 301.703 1219.09 306.02 1216.31 310.954C1212.92 317.122 1208.6 320.206 1203.98 320.206C1187.32 319.898 1183.01 308.796 1183.01 265.93V233.858H1196.58C1204.29 233.858 1211.38 232.316 1212.3 230.774C1213.54 228.924 1208.29 227.69 1198.73 227.69H1183.32L1182.39 208.262L1181.46 189.142L1174.06 204.253Z" fill="black"/>
<path d="M743.557 229.54C729.371 236.942 724.128 242.801 718.577 257.295C705.008 293.068 731.221 329.766 767.919 325.757C794.132 322.673 809.86 303.553 809.86 274.873C809.86 255.445 801.533 240.334 786.422 231.699C772.236 223.373 756.509 222.756 743.557 229.54ZM772.236 234.475C782.105 245.268 785.497 257.912 785.805 282.891C785.805 300.778 784.572 307.254 779.638 313.73C760.826 339.326 736.464 308.796 739.547 262.538C740.473 247.735 742.323 241.567 748.182 235.4C757.125 225.84 763.602 225.531 772.236 234.475Z" fill="black"/>
<path d="M858.584 229.54C853.65 232.007 849.949 232.624 849.949 230.774C849.949 228.924 841.931 227.69 830.83 227.998C816.027 227.998 812.943 228.615 818.494 230.774C825.279 233.549 825.279 234.166 825.279 300.161C825.279 366.155 825.279 366.772 818.494 369.548C813.252 371.398 818.802 372.323 837.614 372.323C856.426 372.323 861.977 371.398 857.042 369.548C850.566 366.772 849.949 364.613 849.949 343.643V320.206L857.968 323.29C894.357 337.167 930.438 298.927 917.794 259.454C908.543 231.082 881.096 217.205 858.584 229.54ZM879.555 236.325C894.357 246.193 895.591 296.152 881.713 311.571C876.162 317.739 865.06 318.664 855.809 314.038C850.566 310.954 849.949 307.254 849.949 279.499C849.949 251.436 850.566 247.427 856.734 240.951C863.21 233.858 873.078 232.007 879.555 236.325Z" fill="black"/>
<path d="M1075.07 231.699C1045.47 251.436 1044.23 296.769 1072.6 318.047C1091.72 332.233 1129.04 326.374 1139.52 307.562C1143.53 300.161 1143.53 298.619 1138.91 291.218C1133.36 282.891 1122.25 280.424 1116.09 286.592C1113.31 289.367 1113.62 292.143 1117.32 297.385C1128.11 314.038 1102.21 328.841 1087.72 314.347C1080.93 307.562 1075.07 289.367 1075.07 274.565V264.696H1107.45C1134.9 264.696 1139.83 264.08 1139.83 259.762C1139.83 250.511 1129.04 236.325 1117.63 230.466C1102.52 222.756 1087.41 223.064 1075.07 231.699ZM1107.14 234.475C1109.3 238.484 1112.08 245.268 1113.31 249.894L1115.16 258.529H1096.35H1077.54L1079.39 248.66C1083.4 229.232 1098.82 221.214 1107.14 234.475Z" fill="black"/>
</svg>
