<svg width="763" height="200" viewBox="0 0 763 200" fill="none" xmlns="http://www.w3.org/2000/svg">
<path d="M51.1806 55.7566C23.7404 132.367 21.8905 136.415 10.1745 143.578L0 149.807H21.2739C42.2394 149.807 42.2394 149.807 35.4564 144.201C28.3651 138.595 28.3651 138.284 33.6065 122.401L39.1562 106.207H65.9798H93.1117L98.3531 119.599C104.828 136.415 104.519 142.644 98.0447 146.381C94.0366 148.872 99.5863 149.495 119.627 149.807H147.067L137.818 142.021C130.726 136.104 123.327 119.91 103.286 67.2793C89.1036 30.5312 76.1542 0.323084 74.3043 0.323084C72.4544 0.323084 61.9717 25.237 51.1806 55.7566ZM77.6958 66.345C82.9372 80.6705 88.1786 94.6846 89.4119 97.4874C91.2618 102.47 89.1036 103.093 66.5964 103.093C52.7222 103.093 41.6228 102.47 41.6228 101.847C41.6228 100.913 45.9392 88.7675 50.8723 74.442C56.1137 60.1165 61.0467 46.7253 61.6634 44.5453C64.4382 36.4483 68.4463 41.7425 77.6958 66.345Z" fill="black"/>
<path d="M201.331 7.17452C207.497 10.2888 208.114 12.7802 208.114 33.957C208.114 54.8224 207.497 56.691 202.872 54.511C199.789 52.9539 190.54 51.7082 181.907 51.7082C154.467 51.7082 137.201 71.3279 137.201 102.159C137.509 139.218 175.432 166.001 200.098 146.381C206.572 141.087 208.114 140.775 208.114 144.824C208.114 148.872 211.814 149.807 227.538 149.807C244.803 149.807 246.037 149.495 238.945 145.758L231.238 141.71L230.313 72.5736L229.696 3.43743L211.814 3.74886C197.014 3.74886 195.164 4.37171 201.331 7.17452ZM202.564 64.788C207.189 68.8365 208.114 74.7535 208.114 99.0446C208.114 126.139 207.497 128.941 200.406 136.104C182.523 153.855 164.949 137.038 164.949 102.47C164.949 83.162 168.033 72.5736 175.741 64.788C182.215 57.9366 195.164 57.9366 202.564 64.788Z" fill="black"/>
<path d="M472.341 5.61732C476.349 6.24017 480.049 9.97726 480.974 13.7143C481.899 17.4514 482.207 47.971 481.899 81.2934L480.974 141.71L473.266 145.758C466.483 149.184 469.258 149.807 494.848 149.495C511.497 149.184 520.747 148.25 516.43 147.004C509.031 145.135 508.722 143.578 507.797 120.844L506.872 96.8646H517.664C540.479 96.8646 559.595 90.3247 572.236 78.4906C583.335 67.5907 584.26 65.4108 584.26 50.4624C584.26 35.8255 583.027 32.7112 574.085 23.6799C559.595 9.04299 538.012 3.43735 498.24 3.74878C480.357 4.0602 468.641 4.99447 472.341 5.61732ZM536.163 10.9115C551.887 17.4514 556.511 26.4827 556.511 50.151C556.511 63.8536 554.97 72.8849 551.578 77.8677C545.412 86.5876 529.38 93.7503 516.43 93.7503H507.181V50.151V6.55159H516.43C521.672 6.55159 530.613 8.42014 536.163 10.9115Z" fill="black"/>
<path d="M710.979 29.597C705.121 41.1197 700.496 46.1025 691.555 49.8396C677.372 55.7566 676.447 59.4937 689.088 59.4937C694.33 59.4937 698.338 60.428 698.646 61.6737C698.646 63.2308 698.955 80.0477 699.263 99.356L699.88 134.858L710.054 143.89C725.778 157.904 751.985 155.101 759.693 138.284C763.701 129.564 764.009 128.007 760.926 128.007C759.385 128.007 755.993 132.367 753.218 137.35C749.827 143.578 745.51 146.692 740.886 146.692C724.237 146.381 719.92 135.17 719.92 91.8818V59.4937H733.486C741.194 59.4937 748.285 57.9366 749.21 56.3795C750.443 54.5109 745.202 53.2652 735.644 53.2652H720.228L719.303 33.6455L718.379 14.3372L710.979 29.597Z" fill="black"/>
<path d="M247.932 80.505C245.797 85.4152 245.539 92.0828 247.263 97.7322C248.095 100.421 248.755 101.549 250.784 104.02C253.668 107.486 255.522 108.667 258.518 108.885C262.061 109.212 264.203 108.23 266.892 105.158C269.812 101.784 270.887 98.7532 271.133 92.966C271.364 88.1268 270.361 83.8774 268.002 79.8097C265.925 76.1868 263.823 74.392 260.452 73.356C255.764 71.9266 250.301 75.0226 247.932 80.505Z" fill="black"/>
<path d="M271.296 57.2397C267.756 65.5819 269.219 75.9685 274.743 81.9494C285.349 93.4302 298.725 78.4042 293.235 61.1124C292.001 57.232 291.655 56.5831 289.338 54.0739C286.543 51.0489 284.366 49.9981 281.043 50.0466C277.269 50.0879 272.999 53.237 271.296 57.2397Z" fill="black"/>
<path d="M301.98 58.4754C299.182 64.5941 298.669 71.0544 300.488 76.8747C302.335 82.9324 306.891 86.7643 311.864 86.3697C314.479 86.1742 316.561 84.9207 319.446 81.7156C321.543 79.3785 322.074 78.3709 323.186 75.1038C325.375 68.6703 325.02 62.0268 322.101 56.46C320.941 54.1726 320.434 53.5548 318.645 52.3748C314.015 49.219 309.458 49.8573 305.201 54.3273C303.826 55.7278 302.38 57.601 301.98 58.4754Z" fill="black"/>
<path d="M324.296 83.0462C323.629 84.5934 322.823 86.7478 322.582 87.794C321.861 90.8642 322.173 98.2182 323.162 101.214C325.978 109.421 332.995 112.547 339.345 108.348C347.974 102.627 350.027 85.5911 342.979 77.8923C340.821 75.4872 338.868 74.4738 336.065 74.3276C331.844 74.023 326.563 77.9348 324.296 83.0462Z" fill="black"/>
<path fill-rule="evenodd" clip-rule="evenodd" d="M258.95 119.119C255.542 125.059 254.419 133.541 256.174 139.293C257.882 144.772 262.722 149.384 268.785 151.53C269.159 151.326 269.567 151.116 269.992 150.913C272.372 149.825 273.903 149.51 277.593 149.34C280.156 149.258 282.98 149.329 283.909 149.512C284.838 149.696 285.556 149.673 285.547 149.354C285.539 149.088 284.57 147.52 283.395 145.906C280.507 141.843 279.779 139.735 280.808 138.051C281.445 137.018 282.051 136.68 283.538 136.633L285.435 136.572L285.24 129.813C285.066 123.746 285.186 122.57 286.362 118.857C287.675 114.553 287.841 113.216 287.091 112.121C286.769 111.599 286.369 111.985 285.54 113.503L284.42 115.562L283.861 113.982C283.527 113.087 282.712 111.515 282.014 110.418C280.564 108.174 280.681 106.891 282.433 105.397C283.033 104.846 284.171 103.371 284.905 102.123C286.374 99.679 287.33 99.0093 288.779 99.4427C289.298 99.6394 290.166 99.5052 290.618 99.1712C292.23 98.1079 295.982 98.3084 297.917 99.5788C298.909 100.187 300.579 101.146 301.57 101.7C303.238 102.606 303.507 103.024 303.83 105.357C304.078 106.841 304.54 108.638 304.922 109.425C305.905 111.471 305.337 113.14 303.071 114.651C301.965 115.432 300.818 116.587 300.479 117.29C299.703 118.859 299.012 118.029 298.939 115.474C298.913 114.57 298.633 113.779 298.326 113.789C297.762 113.807 297.977 115.931 298.692 117.613C299.02 118.295 298.869 118.406 298.043 118.219C296.493 117.843 296.18 119.451 297.322 121.705C299.991 127.054 300.087 130.407 297.835 137.723C296.307 142.724 296.399 146.597 298.08 149.183C298.413 149.22 298.75 149.264 299.091 149.314C296.961 146.847 296.911 143.364 298.745 137.268C300.945 129.9 300.873 127.399 298.037 121.576C296.887 119.055 297.12 118.249 298.844 119.313C299.944 120.077 300.25 120.014 301.867 119.164C302.877 118.599 303.625 117.829 303.609 117.297C303.594 116.765 303.727 116.015 303.867 115.531C304.762 112.786 307.468 117.654 308.417 123.857C309.232 128.998 309.908 131.107 311.815 134.935C313.285 137.872 313.685 139.298 313.76 141.905C313.865 143.767 314.061 145.252 314.215 145.247C314.882 145.226 315.139 143.46 315.019 139.308C314.886 134.678 315.675 131.776 317.289 130.819C318.853 129.864 319.141 130.974 317.871 133.198C316.946 134.932 316.862 135.574 317.277 139.29C318.026 145.712 316.381 149.174 311.661 150.975C310.671 151.342 309.506 151.593 308.299 151.729C316.336 154.287 321.886 153.808 328.196 149.994C337.76 144.254 339.552 129.687 332.076 118.154C329.616 114.322 327.834 112.668 322.052 108.816C319.847 107.392 315.544 103.903 312.488 101.145C304.18 93.5957 301.909 92.3065 296.815 92.2249C291.269 92.1363 288.603 93.5839 278.677 102.027C276.456 103.956 272.707 106.707 270.364 108.159C265.451 111.163 261.036 115.393 258.95 119.119Z" fill="black"/>
<path d="M395.57 55.1338C390.637 57.6252 386.937 58.248 386.937 56.3795C386.937 54.5109 378.921 53.2652 367.821 53.5767C353.022 53.5767 349.939 54.1995 355.489 56.3795C362.271 59.1823 362.271 59.8051 362.271 126.45C362.271 193.095 362.271 193.717 355.489 196.52C350.247 198.389 355.797 199.323 374.604 199.323C393.411 199.323 398.961 198.389 394.028 196.52C387.553 193.717 386.937 191.538 386.937 170.361V146.692L394.953 149.807C431.334 163.821 467.407 125.204 454.767 85.3419C445.517 56.6909 418.077 42.6768 395.57 55.1338ZM416.535 61.9851C431.334 71.9507 432.568 122.401 418.693 137.973C413.144 144.201 402.044 145.135 392.795 140.464C387.553 137.35 386.937 133.613 386.937 105.584C386.937 77.2449 387.553 73.1964 393.72 66.6565C400.194 59.4937 410.061 57.6252 416.535 61.9851Z" fill="black"/>
<path d="M612.008 57.3137C582.41 77.2449 581.177 123.024 609.542 144.512C628.657 158.838 665.964 152.921 676.447 133.924C680.455 126.45 680.455 124.893 675.83 117.419C670.28 109.01 659.181 106.519 653.014 112.747C650.24 115.55 650.548 118.353 654.248 123.647C665.039 140.464 639.14 155.412 624.649 140.775C617.866 133.924 612.008 115.55 612.008 100.602V90.6361H644.382C671.822 90.6361 676.755 90.0133 676.755 85.6533C676.755 76.3106 665.964 61.9851 654.556 56.068C639.449 48.2824 624.341 48.5939 612.008 57.3137ZM644.073 60.1165C646.231 64.1651 649.006 71.0164 650.24 75.6877L652.09 84.4076H633.282H614.475L616.325 74.4421C620.333 54.8223 635.749 46.7253 644.073 60.1165Z" fill="black"/>
</svg>
