<svg width="454" height="556" viewBox="0 0 454 556" fill="none" xmlns="http://www.w3.org/2000/svg">
<path d="M13.8346 132.374C4.54385 152.72 3.42175 180.348 10.9239 203.757C14.5431 214.898 17.4189 219.572 26.2441 229.81C38.7954 244.175 46.8601 249.069 59.8969 249.969C75.3124 251.326 84.6364 247.258 96.3364 234.526C109.039 220.546 113.72 207.988 114.787 184.008C115.794 163.956 111.431 146.348 101.163 129.493C92.1295 114.481 82.9814 107.044 68.3121 102.751C47.9142 96.8282 24.1437 109.657 13.8346 132.374Z" fill="white"/>
<path d="M115.497 35.9711C100.096 70.5381 106.458 113.576 130.498 138.359C176.644 185.931 234.846 123.669 210.957 52.0181C205.589 35.9391 204.086 33.2501 194.001 22.8531C181.842 10.3186 172.366 5.96449 157.909 6.16549C141.488 6.33649 122.907 19.3851 115.497 35.9711Z" fill="white"/>
<path d="M249.013 41.0911C236.839 66.4451 234.607 93.2141 242.52 117.331C250.557 142.432 270.383 158.31 292.018 156.675C303.397 155.865 312.457 150.671 325.009 137.39C334.137 127.706 336.446 123.531 341.283 109.993C350.81 83.3351 349.264 55.8071 336.565 32.7401C331.517 23.2621 329.311 20.7021 321.526 15.8125C301.378 2.73585 281.551 5.38096 263.026 23.9031C257.044 29.7061 250.752 37.4681 249.013 41.0911Z" fill="white"/>
<path d="M346.113 142.904C343.209 149.315 339.705 158.242 338.657 162.577C335.517 175.299 336.877 205.771 341.179 218.185C353.431 252.191 383.966 265.145 411.595 247.744C449.143 224.038 458.076 153.449 427.408 121.548C418.018 111.582 409.521 107.383 397.322 106.777C378.958 105.515 355.978 121.724 346.113 142.904Z" fill="white"/>
<path fill-rule="evenodd" clip-rule="evenodd" d="M61.7774 292.377C46.9489 316.989 42.0637 352.137 49.6998 375.969C57.1311 398.672 78.1904 417.782 104.573 426.677C106.2 425.829 107.975 424.961 109.823 424.119C120.181 419.612 126.84 418.307 142.895 417.601C154.048 417.263 166.338 417.554 170.38 418.315C174.422 419.075 177.545 418.981 177.505 417.658C177.471 416.555 173.256 410.06 168.142 403.372C155.575 386.535 152.409 377.801 156.886 370.823C159.66 366.545 162.297 365.141 168.766 364.946L177.02 364.696L176.173 336.688C175.413 311.547 175.935 306.675 181.052 291.29C186.765 273.458 187.49 267.918 184.227 263.381C182.822 261.216 181.084 262.814 177.478 269.104L172.601 277.639L170.17 271.091C168.718 267.382 165.172 260.867 162.132 256.324C155.823 247.023 156.332 241.71 163.959 235.519C166.57 233.233 171.52 227.123 174.713 221.95C181.105 211.824 185.264 209.049 191.57 210.845C193.827 211.66 197.606 211.104 199.574 209.72C206.585 205.314 222.91 206.145 231.33 211.409C235.649 213.927 242.914 217.901 247.226 220.199C254.484 223.953 255.653 225.683 257.062 235.353C258.141 241.501 260.152 248.945 261.814 252.206C266.089 260.685 263.619 267.603 253.76 273.861C248.946 277.097 243.955 281.883 242.481 284.797C239.105 291.301 236.098 287.86 235.778 277.274C235.665 273.525 234.449 270.251 233.111 270.291C230.657 270.365 231.593 279.167 234.706 286.136C236.131 288.962 235.476 289.424 231.88 288.649C225.134 287.088 223.773 293.751 228.744 303.092C240.355 325.256 240.775 339.15 230.974 369.466C224.327 390.186 224.727 406.234 232.043 416.95C233.492 417.103 234.956 417.285 236.439 417.495C227.174 407.27 226.955 392.837 234.936 367.58C244.507 337.05 244.194 326.685 231.854 302.556C226.849 292.112 227.864 288.771 235.366 293.179C240.15 296.346 241.482 296.085 248.52 292.561C252.915 290.221 256.168 287.032 256.101 284.827C256.035 282.621 256.611 279.514 257.22 277.509C261.118 266.133 272.892 286.306 277.018 312.007C280.565 333.311 283.509 342.051 291.803 357.914C298.2 370.082 299.941 375.989 300.268 386.795C300.724 394.507 301.58 400.662 302.25 400.642C305.15 400.554 306.268 393.236 305.748 376.034C305.168 356.848 308.6 344.824 315.625 340.859C322.427 336.901 323.682 341.499 318.156 350.716C314.131 357.901 313.765 360.561 315.57 375.958C318.83 402.568 311.673 416.912 291.133 424.376C286.828 425.898 281.756 426.935 276.506 427.501C311.477 438.098 335.625 436.113 363.081 420.312C404.7 396.528 412.494 336.165 379.964 288.379C369.26 272.499 361.506 265.645 336.349 249.686C326.756 243.786 308.032 229.328 294.734 217.899C258.584 186.617 248.702 181.275 226.535 180.937C202.404 180.57 190.806 186.568 147.614 221.554C137.95 229.546 121.638 240.945 111.443 246.964C90.0644 259.409 70.8534 276.938 61.7774 292.377Z" fill="white"/>
<path d="M51.0237 474.092C36.5304 514.152 35.5533 516.269 29.3651 520.015L23.9912 523.272L35.2276 523.272C46.3011 523.272 46.3011 523.272 42.7185 520.34C38.9731 517.409 38.9731 517.246 41.7415 508.941L44.6727 500.473L58.8403 500.473L73.1708 500.473L75.9392 507.476C79.3589 516.269 79.1961 519.526 75.7763 521.48C73.6593 522.783 76.5905 523.109 87.1756 523.272L101.669 523.272L96.7835 519.201C93.038 516.106 89.1297 507.638 78.5447 480.117C71.0538 460.902 64.2142 445.106 63.2372 445.106C62.2601 445.106 56.7233 458.133 51.0237 474.092ZM65.0285 479.629C67.7968 487.12 70.5652 494.448 71.2166 495.914C72.1937 498.519 71.0538 498.845 59.166 498.845C51.8379 498.845 45.9755 498.519 45.9755 498.193C45.9755 497.705 48.2553 491.354 50.8608 483.863C53.6292 476.372 56.2348 469.37 56.5605 468.23C58.0261 463.996 60.1431 466.764 65.0285 479.629Z" fill="white"/>
<path d="M130.33 448.688C133.586 450.317 133.912 451.619 133.912 462.693C133.912 473.604 133.586 474.581 131.144 473.441C129.515 472.627 124.63 471.975 120.07 471.975C105.577 471.975 96.4575 482.234 96.4575 498.356C96.6204 517.735 116.65 531.74 129.678 521.48C133.098 518.712 133.912 518.549 133.912 520.666C133.912 522.783 135.866 523.272 144.171 523.272C153.291 523.272 153.942 523.109 150.197 521.155L146.126 519.038L145.637 482.886L145.311 446.734L135.866 446.897C128.05 446.897 127.073 447.223 130.33 448.688ZM130.981 478.815C133.424 480.932 133.912 484.026 133.912 496.728C133.912 510.895 133.586 512.361 129.841 516.107C120.396 525.389 111.114 516.595 111.114 498.519C111.114 488.423 112.742 482.886 116.813 478.815C120.233 475.232 127.073 475.232 130.981 478.815Z" fill="white"/>
<path d="M273.471 447.874C275.588 448.2 277.543 450.154 278.031 452.108C278.52 454.062 278.683 470.021 278.52 487.446L278.031 519.038L273.96 521.155C270.377 522.946 271.843 523.272 285.359 523.109C294.153 522.946 299.038 522.458 296.758 521.806C292.85 520.829 292.687 520.015 292.199 508.127L291.71 495.588L297.41 495.588C309.46 495.588 319.557 492.168 326.234 485.98C332.096 480.28 332.585 479.14 332.585 471.324C332.585 463.67 331.933 462.042 327.211 457.319C319.557 449.665 308.158 446.734 287.151 446.897C277.705 447.06 271.517 447.548 273.471 447.874ZM307.181 450.642C315.486 454.062 317.928 458.785 317.928 471.161C317.928 478.326 317.114 483.049 315.323 485.654C312.066 490.214 303.598 493.959 296.758 493.959L291.873 493.959L291.873 471.161L291.873 448.363L296.758 448.363C299.527 448.363 304.249 449.34 307.181 450.642Z" fill="white"/>
<path d="M399.515 460.413C396.421 466.438 393.978 469.044 389.255 470.998C381.765 474.092 381.276 476.046 387.953 476.046C390.721 476.046 392.838 476.535 393.001 477.186C393.001 478 393.164 486.794 393.327 496.891L393.652 515.455L399.026 520.178C407.331 527.506 421.173 526.04 425.245 517.246C427.362 512.687 427.524 511.872 425.896 511.872C425.082 511.872 423.29 514.152 421.825 516.758C420.033 520.015 417.754 521.643 415.311 521.643C406.517 521.48 404.237 515.618 404.237 492.982L404.237 476.046L411.403 476.046C415.474 476.046 419.219 475.232 419.708 474.418C420.359 473.441 417.591 472.789 412.543 472.789L404.4 472.789L403.912 462.53L403.423 452.434L399.515 460.413Z" fill="white"/>
<path d="M172.181 473.767C164.69 477.675 161.922 480.769 158.991 488.423C151.826 507.313 165.667 526.692 185.046 524.575C198.888 522.946 207.193 512.85 207.193 497.705C207.193 487.446 202.796 479.466 194.817 474.906C187.326 470.51 179.021 470.184 172.181 473.767ZM187.326 476.372C192.537 482.072 194.328 488.748 194.491 501.939C194.491 511.384 193.84 514.804 191.234 518.224C181.301 531.74 168.436 515.618 170.064 491.191C170.553 483.374 171.53 480.118 174.624 476.861C179.347 471.812 182.766 471.65 187.326 476.372Z" fill="white"/>
<path d="M232.923 473.766C230.317 475.069 228.363 475.395 228.363 474.418C228.363 473.441 224.129 472.789 218.267 472.952C210.45 472.952 208.822 473.278 211.753 474.418C215.336 475.883 215.336 476.209 215.336 511.058C215.336 545.907 215.336 546.233 211.753 547.699C208.985 548.676 211.916 549.164 221.849 549.164C231.783 549.164 234.714 548.676 232.109 547.699C228.689 546.233 228.363 545.093 228.363 534.02L228.363 521.643L232.597 523.272C251.813 530.6 270.866 510.407 264.19 489.563C259.304 474.581 244.811 467.253 232.923 473.766ZM243.997 477.349C251.813 482.56 252.465 508.941 245.137 517.084C242.205 520.341 236.343 520.829 231.457 518.386C228.689 516.758 228.363 514.804 228.363 500.148C228.363 485.329 228.689 483.212 231.946 479.792C235.366 476.046 240.577 475.069 243.997 477.349Z" fill="white"/>
<path d="M347.241 474.906C331.608 485.329 330.956 509.267 345.938 520.503C356.035 527.994 375.739 524.9 381.276 514.967C383.393 511.058 383.393 510.244 380.95 506.336C378.019 501.939 372.156 500.636 368.899 503.893C367.434 505.359 367.597 506.824 369.551 509.593C375.25 518.386 361.571 526.203 353.918 518.549C350.335 514.967 347.241 505.359 347.241 497.542L347.241 492.331L364.34 492.331C378.833 492.331 381.439 492.005 381.439 489.725C381.439 484.84 375.739 477.349 369.714 474.255C361.734 470.184 353.755 470.347 347.241 474.906ZM364.177 476.372C365.317 478.489 366.782 482.072 367.434 484.514L368.411 489.074L358.477 489.074L348.544 489.074L349.521 483.863C351.638 473.604 359.78 469.37 364.177 476.372Z" fill="white"/>
</svg>
