<svg width="455" height="556" viewBox="0 0 455 556" fill="none" xmlns="http://www.w3.org/2000/svg">
<path d="M14.7573 132.374C5.46645 152.72 4.34436 180.348 11.8465 203.757C15.4658 214.898 18.3416 219.572 27.1668 229.81C39.7181 244.175 47.7827 249.069 60.8196 249.969C76.2351 251.326 85.5591 247.258 97.2591 234.526C109.962 220.546 114.643 207.988 115.71 184.008C116.717 163.956 112.354 146.348 102.086 129.493C93.0521 114.481 83.9041 107.044 69.2348 102.751C48.8369 96.8281 25.0664 109.657 14.7573 132.374Z" fill="black"/>
<path d="M116.419 35.9711C101.018 70.5381 107.38 113.576 131.42 138.359C177.566 185.931 235.768 123.669 211.879 52.0181C206.511 35.9391 205.008 33.2501 194.923 22.8531C182.764 10.3186 173.288 5.96449 158.831 6.16549C142.41 6.33649 123.829 19.3851 116.419 35.9711Z" fill="black"/>
<path d="M249.935 41.0911C237.761 66.4451 235.529 93.2141 243.442 117.331C251.479 142.432 271.305 158.31 292.94 156.675C304.319 155.865 313.379 150.671 325.931 137.39C335.059 127.706 337.368 123.531 342.205 109.993C351.732 83.3351 350.186 55.8071 337.487 32.7401C332.439 23.2621 330.233 20.7021 322.448 15.8125C302.3 2.73585 282.473 5.38096 263.948 23.9031C257.966 29.7061 251.674 37.4681 249.935 41.0911Z" fill="black"/>
<path d="M347.036 142.904C344.132 149.315 340.628 158.242 339.58 162.577C336.44 175.299 337.8 205.771 342.102 218.185C354.354 252.191 384.889 265.145 412.518 247.744C450.066 224.038 458.999 153.449 428.331 121.548C418.941 111.582 410.444 107.383 398.245 106.777C379.881 105.515 356.901 121.724 347.036 142.904Z" fill="black"/>
<path fill-rule="evenodd" clip-rule="evenodd" d="M62.7 292.377C47.8715 316.989 42.9863 352.137 50.6224 375.969C58.0537 398.672 79.113 417.782 105.496 426.677C107.123 425.829 108.898 424.961 110.746 424.119C121.104 419.612 127.763 418.307 143.818 417.601C154.971 417.263 167.261 417.554 171.303 418.315C175.345 419.075 178.468 418.981 178.428 417.658C178.394 416.555 174.179 410.06 169.065 403.372C156.498 386.535 153.332 377.801 157.809 370.823C160.583 366.545 163.22 365.141 169.689 364.946L177.943 364.696L177.096 336.688C176.336 311.547 176.858 306.675 181.975 291.29C187.688 273.458 188.413 267.918 185.15 263.381C183.745 261.216 182.007 262.814 178.401 269.104L173.524 277.639L171.093 271.091C169.641 267.382 166.095 260.867 163.055 256.324C156.746 247.023 157.255 241.71 164.882 235.519C167.493 233.233 172.443 227.123 175.636 221.95C182.028 211.824 186.187 209.049 192.493 210.845C194.75 211.66 198.529 211.104 200.497 209.72C207.508 205.314 223.833 206.145 232.253 211.409C236.572 213.927 243.837 217.901 248.149 220.199C255.407 223.953 256.576 225.683 257.985 235.353C259.064 241.501 261.075 248.945 262.737 252.206C267.012 260.685 264.542 267.603 254.683 273.861C249.869 277.097 244.878 281.883 243.404 284.797C240.028 291.301 237.021 287.86 236.701 277.274C236.588 273.525 235.372 270.251 234.034 270.291C231.58 270.365 232.516 279.167 235.629 286.136C237.054 288.962 236.399 289.424 232.803 288.649C226.057 287.088 224.696 293.751 229.667 303.092C241.278 325.256 241.698 339.15 231.897 369.466C225.25 390.186 225.65 406.234 232.966 416.95C234.415 417.103 235.879 417.285 237.362 417.495C228.097 407.27 227.878 392.837 235.859 367.58C245.43 337.05 245.117 326.685 232.777 302.556C227.772 292.112 228.787 288.771 236.289 293.179C241.073 296.346 242.405 296.085 249.443 292.561C253.838 290.221 257.091 287.032 257.024 284.827C256.958 282.621 257.534 279.514 258.143 277.509C262.041 266.133 273.815 286.306 277.941 312.007C281.488 333.311 284.432 342.051 292.726 357.914C299.123 370.082 300.864 375.989 301.191 386.795C301.647 394.507 302.503 400.662 303.173 400.642C306.073 400.554 307.191 393.236 306.671 376.034C306.091 356.848 309.523 344.824 316.548 340.859C323.35 336.901 324.605 341.499 319.079 350.716C315.054 357.901 314.688 360.561 316.493 375.958C319.753 402.568 312.596 416.912 292.056 424.376C287.751 425.898 282.679 426.935 277.429 427.501C312.4 438.098 336.548 436.113 364.004 420.312C405.623 396.528 413.417 336.165 380.887 288.379C370.183 272.499 362.429 265.645 337.272 249.686C327.679 243.786 308.955 229.328 295.657 217.899C259.507 186.617 249.625 181.275 227.458 180.937C203.327 180.57 191.729 186.568 148.537 221.554C138.873 229.546 122.561 240.945 112.366 246.964C90.987 259.409 71.776 276.938 62.7 292.377Z" fill="black"/>
<path d="M51.9463 474.092C37.453 514.152 36.4759 516.269 30.2877 520.015L24.9138 523.272L36.1502 523.272C47.2238 523.272 47.2238 523.272 43.6411 520.34C39.8957 517.409 39.8957 517.246 42.6641 508.941L45.5953 500.473L59.7629 500.473L74.0934 500.473L76.8618 507.476C80.2815 516.269 80.1187 519.526 76.6989 521.48C74.5819 522.783 77.5132 523.109 88.0982 523.272L102.591 523.272L97.7061 519.201C93.9606 516.106 90.0523 507.638 79.4673 480.117C71.9764 460.902 65.1368 445.106 64.1598 445.106C63.1827 445.106 57.6459 458.133 51.9463 474.092ZM65.9511 479.629C68.7195 487.12 71.4878 494.448 72.1392 495.914C73.1163 498.519 71.9764 498.845 60.0886 498.845C52.7605 498.845 46.8981 498.519 46.8981 498.193C46.8981 497.705 49.1779 491.354 51.7834 483.863C54.5518 476.372 57.1574 469.37 57.4831 468.23C58.9487 463.996 61.0657 466.764 65.9511 479.629Z" fill="black"/>
<path d="M131.252 448.688C134.509 450.317 134.835 451.619 134.835 462.693C134.835 473.604 134.509 474.581 132.067 473.441C130.438 472.627 125.553 471.975 120.993 471.975C106.5 471.975 97.3804 482.234 97.3804 498.356C97.5432 517.735 117.573 531.74 130.601 521.48C134.021 518.712 134.835 518.549 134.835 520.666C134.835 522.783 136.789 523.272 145.094 523.272C154.214 523.272 154.865 523.109 151.12 521.155L147.048 519.038L146.56 482.886L146.234 446.734L136.789 446.897C128.973 446.897 127.995 447.223 131.252 448.688ZM131.904 478.815C134.346 480.932 134.835 484.026 134.835 496.728C134.835 510.895 134.509 512.361 130.764 516.107C121.319 525.389 112.037 516.595 112.037 498.519C112.037 488.423 113.665 482.886 117.736 478.815C121.156 475.232 127.995 475.232 131.904 478.815Z" fill="black"/>
<path d="M274.394 447.874C276.511 448.2 278.465 450.154 278.954 452.108C279.442 454.062 279.605 470.021 279.442 487.446L278.954 519.038L274.883 521.155C271.3 522.946 272.766 523.272 286.282 523.109C295.076 522.946 299.961 522.458 297.681 521.806C293.773 520.829 293.61 520.015 293.121 508.127L292.633 495.588L298.332 495.588C310.383 495.588 320.48 492.168 327.156 485.98C333.019 480.28 333.507 479.14 333.507 471.324C333.507 463.67 332.856 462.042 328.133 457.319C320.48 449.665 309.08 446.734 288.073 446.897C278.628 447.06 272.44 447.548 274.394 447.874ZM308.103 450.642C316.408 454.062 318.851 458.785 318.851 471.161C318.851 478.326 318.037 483.049 316.246 485.654C312.989 490.214 304.521 493.959 297.681 493.959L292.796 493.959L292.796 471.161L292.796 448.363L297.681 448.363C300.449 448.363 305.172 449.34 308.103 450.642Z" fill="black"/>
<path d="M400.437 460.413C397.343 466.438 394.901 469.044 390.178 470.998C382.687 474.092 382.199 476.046 388.875 476.046C391.644 476.046 393.761 476.535 393.924 477.186C393.924 478 394.086 486.794 394.249 496.891L394.575 515.455L399.949 520.178C408.254 527.506 422.096 526.04 426.167 517.246C428.284 512.687 428.447 511.872 426.819 511.872C426.004 511.872 424.213 514.152 422.747 516.758C420.956 520.015 418.676 521.643 416.233 521.643C407.44 521.48 405.16 515.618 405.16 492.982L405.16 476.046L412.325 476.046C416.396 476.046 420.142 475.232 420.63 474.418C421.282 473.441 418.513 472.789 413.465 472.789L405.323 472.789L404.834 462.53L404.346 452.434L400.437 460.413Z" fill="black"/>
<path d="M173.104 473.767C165.613 477.675 162.845 480.769 159.913 488.423C152.748 507.313 166.59 526.692 185.969 524.575C199.811 522.946 208.116 512.85 208.116 497.705C208.116 487.446 203.719 479.466 195.74 474.906C188.249 470.51 179.943 470.184 173.104 473.767ZM188.249 476.372C193.46 482.072 195.251 488.748 195.414 501.939C195.414 511.384 194.762 514.804 192.157 518.224C182.223 531.74 169.358 515.618 170.987 491.191C171.475 483.374 172.453 480.118 175.547 476.861C180.269 471.812 183.689 471.65 188.249 476.372Z" fill="black"/>
<path d="M233.845 473.766C231.24 475.069 229.286 475.395 229.286 474.418C229.286 473.441 225.052 472.789 219.189 472.952C211.373 472.952 209.744 473.278 212.675 474.418C216.258 475.883 216.258 476.209 216.258 511.058C216.258 545.907 216.258 546.233 212.675 547.699C209.907 548.676 212.838 549.164 222.772 549.164C232.705 549.164 235.637 548.676 233.031 547.699C229.611 546.233 229.286 545.093 229.286 534.02L229.286 521.643L233.52 523.272C252.736 530.6 271.789 510.407 265.112 489.563C260.226 474.581 245.733 467.253 233.845 473.766ZM244.919 477.349C252.736 482.56 253.387 508.941 246.059 517.084C243.128 520.341 237.265 520.829 232.38 518.386C229.611 516.758 229.286 514.804 229.286 500.148C229.286 485.329 229.611 483.212 232.868 479.792C236.288 476.046 241.499 475.069 244.919 477.349Z" fill="black"/>
<path d="M348.164 474.906C332.53 485.329 331.879 509.267 346.861 520.503C356.957 527.994 376.662 524.9 382.198 514.967C384.315 511.058 384.315 510.244 381.873 506.336C378.941 501.939 373.079 500.636 369.822 503.893C368.356 505.359 368.519 506.824 370.473 509.593C376.173 518.386 362.494 526.203 354.84 518.549C351.258 514.967 348.164 505.359 348.164 497.542L348.164 492.331L365.262 492.331C379.756 492.331 382.361 492.005 382.361 489.725C382.361 484.84 376.662 477.349 370.636 474.255C362.657 470.184 354.677 470.347 348.164 474.906ZM365.1 476.372C366.239 478.489 367.705 482.072 368.356 484.514L369.334 489.074L359.4 489.074L349.466 489.074L350.443 483.863C352.56 473.604 360.703 469.37 365.1 476.372Z" fill="black"/>
</svg>
